<?xml version="1.0" standalone="no"?><svg xmlns="http://www.w3.org/2000/svg" viewBox="0 0 1440 320"><path fill="#ffd700" fill-opacity="1" d="M0,224L24,186.7C48,149,96,75,144,64C192,53,240,107,288,122.7C336,139,384,117,432,128C480,139,528,181,576,208C624,235,672,245,720,224C768,203,816,149,864,138.7C912,128,960,160,1008,160C1056,160,1104,128,1152,133.3C1200,139,1248,181,1296,202.7C1344,224,1392,224,1416,224L1440,224L1440,320L1416,320C1392,320,1344,320,1296,320C1248,320,1200,320,1152,320C1104,320,1056,320,1008,320C960,320,912,320,864,320C816,320,768,320,720,320C672,320,624,320,576,320C528,320,480,320,432,320C384,320,336,320,288,320C240,320,192,320,144,320C96,320,48,320,24,320L0,320Z"></path></svg>